<svg version="1.1" id="Layer_1" xmlns="http://www.w3.org/2000/svg" xmlns:xlink="http://www.w3.org/1999/xlink" x="0px" y="0px"
	 width="100%" viewBox="0 0 669 587" enable-background="new 0 0 669 587" xml:space="preserve">
<path fill="#FFFFFF" opacity="1.000000" stroke="none" 
	d="
M397.000000,588.000000 
	C264.666687,588.000000 132.833374,588.000000 1.000053,588.000000 
	C1.000035,392.333405 1.000035,196.666779 1.000018,1.000132 
	C223.999893,1.000088 446.999786,1.000088 669.999756,1.000044 
	C669.999878,196.666519 669.999878,392.333038 669.999939,587.999756 
	C579.166687,588.000000 488.333344,588.000000 397.000000,588.000000 
M246.000000,532.500000 
	C271.646271,506.672333 297.384399,480.934448 322.822113,454.903015 
	C325.988129,451.663055 328.323425,451.557526 332.162811,452.891357 
	C348.421204,458.539581 365.421478,460.902069 382.441010,461.808716 
	C405.789246,463.052460 429.161621,461.871826 451.712616,454.894714 
	C466.015381,450.469543 480.513245,446.082520 493.964966,439.667999 
	C507.038879,433.433685 519.241272,425.140961 531.194702,416.842255 
	C548.745605,404.657471 563.152893,389.072021 575.967285,372.051910 
	C588.513062,355.388550 598.545349,337.310059 606.050842,317.817108 
	C614.824951,295.029053 619.789551,271.435333 620.943359,247.087906 
	C621.795654,229.103531 620.693054,211.158600 616.892273,193.544693 
	C614.385742,181.928741 610.846863,170.535553 607.358154,157.503021 
	C601.894043,162.828888 597.560425,166.904968 593.392212,171.143738 
	C581.504089,183.233063 569.803223,195.508774 557.805176,207.487228 
	C543.371094,221.897705 528.667786,236.038055 514.155212,250.370453 
	C503.720642,260.675537 493.488251,271.186981 482.949982,281.383423 
	C481.438995,282.845367 478.434052,284.142059 476.592560,283.670807 
	C457.660034,278.825897 438.828705,273.586578 419.961395,268.485840 
	C405.151123,264.481934 390.329987,260.518127 375.267548,256.470398 
	C375.123566,255.623001 375.020844,254.496033 374.735870,253.417175 
	C366.153900,220.926880 357.666443,188.410599 348.807892,155.995773 
	C347.754822,152.142349 348.433777,149.990402 351.042175,147.389572 
	C390.579224,107.967583 430.041473,68.470619 469.515045,28.984995 
	C470.771973,27.727699 471.962799,26.404331 473.577026,24.696362 
	C471.766052,23.988052 470.504883,23.381502 469.179535,22.994993 
	C461.280487,20.691462 453.484772,17.793753 445.430389,16.318184 
	C432.940552,14.030044 420.316101,11.873363 407.666870,11.200773 
	C389.075531,10.212228 370.548004,11.259715 352.073059,14.792660 
	C333.011017,18.437870 314.623138,24.160913 297.415619,32.586998 
	C278.603729,41.798702 261.115082,53.413502 245.450485,67.758842 
	C232.403152,79.707344 220.640747,92.567818 210.471313,106.989594 
	C196.360519,127.000832 186.033417,148.799179 178.997345,172.224319 
	C174.206070,188.175858 171.161530,204.495453 170.191803,221.045517 
	C169.525787,232.412537 170.637497,243.886169 171.003647,255.310593 
	C171.476059,270.050018 174.292252,284.390778 178.807770,298.382904 
	C180.335022,303.115326 179.456085,306.284546 175.760117,309.950623 
	C134.937515,350.442780 94.350555,391.172424 53.648895,431.786743 
	C51.455143,433.975769 49.999500,435.917847 51.973572,438.994781 
	C53.721916,441.719879 55.105556,444.683899 56.912739,447.365479 
	C65.246803,459.731934 73.150131,472.437531 82.215698,484.247986 
	C90.905273,495.568542 100.279198,506.493591 110.370110,516.573608 
	C121.339279,527.530884 132.957047,537.997681 145.251495,547.427429 
	C159.119461,558.063965 173.858292,567.617554 188.610489,577.027344 
	C196.245270,581.897278 196.495621,581.162781 203.245193,574.460938 
	C217.247650,560.557556 231.405853,546.811035 246.000000,532.500000 
z"/>
<path fill="#14446D" opacity="1.000000" stroke="none" 
	d="
M245.750000,532.750000 
	C231.405853,546.811035 217.247650,560.557556 203.245193,574.460938 
	C196.495621,581.162781 196.245270,581.897278 188.610489,577.027344 
	C173.858292,567.617554 159.119461,558.063965 145.251495,547.427429 
	C132.957047,537.997681 121.339279,527.530884 110.370110,516.573608 
	C100.279198,506.493591 90.905273,495.568542 82.215698,484.247986 
	C73.150131,472.437531 65.246803,459.731934 56.912739,447.365479 
	C55.105556,444.683899 53.721916,441.719879 51.973572,438.994781 
	C49.999500,435.917847 51.455143,433.975769 53.648895,431.786743 
	C94.350555,391.172424 134.937515,350.442780 175.760117,309.950623 
	C179.456085,306.284546 180.335022,303.115326 178.807770,298.382904 
	C174.292252,284.390778 171.476059,270.050018 171.003647,255.310593 
	C170.637497,243.886169 169.525787,232.412537 170.191803,221.045517 
	C171.161530,204.495453 174.206070,188.175858 178.997345,172.224319 
	C186.033417,148.799179 196.360519,127.000832 210.471313,106.989594 
	C220.640747,92.567818 232.403152,79.707344 245.450485,67.758842 
	C261.115082,53.413502 278.603729,41.798702 297.415619,32.586998 
	C314.623138,24.160913 333.011017,18.437870 352.073059,14.792660 
	C370.548004,11.259715 389.075531,10.212228 407.666870,11.200773 
	C420.316101,11.873363 432.940552,14.030044 445.430389,16.318184 
	C453.484772,17.793753 461.280487,20.691462 469.179535,22.994993 
	C470.504883,23.381502 471.766052,23.988052 473.577026,24.696362 
	C471.962799,26.404331 470.771973,27.727699 469.515045,28.984995 
	C430.041473,68.470619 390.579224,107.967583 351.042175,147.389572 
	C348.433777,149.990402 347.754822,152.142349 348.807892,155.995773 
	C357.666443,188.410599 366.153900,220.926880 374.735870,253.417175 
	C375.020844,254.496033 375.123566,255.623001 375.267548,256.470398 
	C390.329987,260.518127 405.151123,264.481934 419.961395,268.485840 
	C438.828705,273.586578 457.660034,278.825897 476.592560,283.670807 
	C478.434052,284.142059 481.438995,282.845367 482.949982,281.383423 
	C493.488251,271.186981 503.720642,260.675537 514.155212,250.370453 
	C528.667786,236.038055 543.371094,221.897705 557.805176,207.487228 
	C569.803223,195.508774 581.504089,183.233063 593.392212,171.143738 
	C597.560425,166.904968 601.894043,162.828888 607.358154,157.503021 
	C610.846863,170.535553 614.385742,181.928741 616.892273,193.544693 
	C620.693054,211.158600 621.795654,229.103531 620.943359,247.087906 
	C619.789551,271.435333 614.824951,295.029053 606.050842,317.817108 
	C598.545349,337.310059 588.513062,355.388550 575.967285,372.051910 
	C563.152893,389.072021 548.745605,404.657471 531.194702,416.842255 
	C519.241272,425.140961 507.038879,433.433685 493.964966,439.667999 
	C480.513245,446.082520 466.015381,450.469543 451.712616,454.894714 
	C429.161621,461.871826 405.789246,463.052460 382.441010,461.808716 
	C365.421478,460.902069 348.421204,458.539581 332.162811,452.891357 
	C328.323425,451.557526 325.988129,451.663055 322.822113,454.903015 
	C297.384399,480.934448 271.646271,506.672333 245.750000,532.750000 
z"/>
</svg>